<svg xmlns="http://www.w3.org/2000/svg" viewBox="0 0 1200 720" role="img" aria-labelledby="t d"><title id="t">Why every capability matters</title><desc id="d">Content, live events, rights, partnerships, and hospitality feed shared capabilities and stronger products.</desc><rect width="1200" height="720" fill="#0c1210"/><g font-family="Arial, sans-serif"><text x="55" y="65" fill="#fc9142" font-size="18" font-weight="800" letter-spacing="4">WHY EVERY CAPABILITY MATTERS</text><text x="55" y="112" fill="#f5f1e8" font-size="38" font-weight="800">VALUE MOVES THROUGH THE SYSTEM.</text><g font-weight="700" font-size="22"><g transform="translate(70 175)"><rect width="300" height="70" rx="8" fill="#151e1b" stroke="#42fcd1"/><text x="28" y="44" fill="#f5f1e8">CONTENT &amp; STORY</text></g><g transform="translate(70 265)"><rect width="300" height="70" rx="8" fill="#151e1b" stroke="#42fcd1"/><text x="28" y="44" fill="#f5f1e8">LIVE EVENTS</text></g><g transform="translate(70 355)"><rect width="300" height="70" rx="8" fill="#151e1b" stroke="#42fcd1"/><text x="28" y="44" fill="#f5f1e8">MEDIA RIGHTS</text></g><g transform="translate(70 445)"><rect width="300" height="70" rx="8" fill="#151e1b" stroke="#42fcd1"/><text x="28" y="44" fill="#f5f1e8">SPONSORSHIPS</text></g><g transform="translate(70 535)"><rect width="300" height="70" rx="8" fill="#151e1b" stroke="#42fcd1"/><text x="28" y="44" fill="#f5f1e8">HOSPITALITY</text></g></g><g fill="none" stroke="#fc5042" stroke-width="4"><path d="M370 210H500M370 300H500M370 390H500M370 480H500M370 570H500"/><path d="m478 195 22 15-22 15M478 285l22 15-22 15M478 375l22 15-22 15M478 465l22 15-22 15M478 555l22 15-22 15"/></g><g transform="translate(500 235)"><rect width="260" height="340" rx="18" fill="#42fcd1"/><text x="130" y="115" text-anchor="middle" fill="#101411" font-size="24" font-weight="800">SHARED</text><text x="130" y="154" text-anchor="middle" fill="#101411" font-size="34" font-weight="900">CAPABILITIES</text><path d="M62 202h136M62 238h136M62 274h136" stroke="#101411" stroke-width="4" opacity=".55"/><text x="130" y="315" text-anchor="middle" fill="#101411" font-size="18" font-weight="700">KNOWLEDGE TRANSFERS</text></g><g fill="none" stroke="#fc9142" stroke-width="4"><path d="M760 405H875"/><path d="m853 390 22 15-22 15"/></g><g transform="translate(875 285)"><rect width="260" height="240" rx="18" fill="#fc9142"/><text x="130" y="95" text-anchor="middle" fill="#151713" font-size="22" font-weight="800">STRONGER</text><text x="130" y="138" text-anchor="middle" fill="#151713" font-size="38" font-weight="900">TOGETHER</text><text x="130" y="188" text-anchor="middle" fill="#151713" font-size="17" font-weight="700">MORE USEFUL PRODUCTS</text></g></g></svg>