<svg xmlns="http://www.w3.org/2000/svg" viewBox="0 0 1200 720" role="img" aria-labelledby="t d"><title id="t">Customer confidence is an asset</title><desc id="d">A healthy fruit tree shows loyalty and long-term value growing from customer confidence.</desc><defs><linearGradient id="sky" x1="0" y1="0" x2="0" y2="1"><stop stop-color="#17322b"/><stop offset="1" stop-color="#08100e"/></linearGradient></defs><rect width="1200" height="720" fill="url(#sky)"/><rect y="480" width="1200" height="240" fill="#17120d"/><g stroke="#7d6c5f" stroke-width="18" fill="none" stroke-linecap="round"><path d="M550 510C560 410 565 320 575 205"/><path d="M570 310 435 210M570 310 705 200M560 390 385 335M565 390 760 330"/></g><g fill="#5f7d76"><circle cx="420" cy="200" r="115"/><circle cx="560" cy="165" r="135"/><circle cx="710" cy="200" r="120"/><circle cx="375" cy="330" r="105"/><circle cx="535" cy="315" r="130"/><circle cx="735" cy="320" r="115"/></g><g fill="#fc5042"><circle cx="420" cy="180" r="18"/><circle cx="500" cy="120" r="18"/><circle cx="625" cy="135" r="18"/><circle cx="700" cy="205" r="18"/><circle cx="360" cy="315" r="18"/><circle cx="495" cy="315" r="18"/><circle cx="610" cy="285" r="18"/><circle cx="760" cy="330" r="18"/><circle cx="560" cy="220" r="18"/></g><g fill="none" stroke="#fc9142" stroke-width="5" opacity=".55"><path d="M550 510C480 555 405 590 330 650M550 510C500 580 470 625 450 705M550 510C595 580 630 630 665 705M550 510C665 555 760 610 850 675M550 510C560 595 560 650 560 710"/></g><g font-family="Arial, sans-serif"><text x="850" y="105" fill="#fc9142" font-size="18" font-weight="800" letter-spacing="4">CUSTOMER CONFIDENCE</text><text x="850" y="160" fill="#f5f1e8" font-size="45" font-weight="900">IS A RENEWABLE</text><text x="850" y="210" fill="#f5f1e8" font-size="45" font-weight="900">ASSET.</text><text x="850" y="285" fill="#42fcd1" font-size="22" font-weight="800">CONFIDENCE BUILDS LOYALTY.</text><text x="850" y="325" fill="#42fcd1" font-size="22" font-weight="800">LOYALTY COMPOUNDS VALUE.</text><text x="850" y="405" fill="#f5f1e8" opacity=".74" font-size="19">Harvest the fruit.</text><text x="850" y="438" fill="#f5f1e8" opacity=".74" font-size="19">Protect the roots.</text></g></svg>