<svg xmlns="http://www.w3.org/2000/svg" viewBox="0 0 1200 720" role="img" aria-labelledby="t d"><title id="t">The TKO ecosystem</title><desc id="d">TKO connects WWE, UFC, PBR, IMG, and On Location through shared capabilities.</desc><defs><linearGradient id="b" x1="0" y1="0" x2="1" y2="1"><stop stop-color="#07100e"/><stop offset="1" stop-color="#16221f"/></linearGradient><pattern id="g" width="48" height="48" patternUnits="userSpaceOnUse"><path d="M48 0H0V48" fill="none" stroke="#fff" stroke-opacity=".035"/></pattern></defs><rect width="1200" height="720" fill="url(#b)"/><rect width="1200" height="720" fill="url(#g)"/><g fill="none" stroke="#42fcd1" stroke-opacity=".55" stroke-width="3"><path d="M600 360 260 170M600 360 600 115M600 360 940 170M600 360 285 545M600 360 915 545"/><circle cx="600" cy="360" r="185" stroke-dasharray="7 10"/></g><g font-family="Arial, sans-serif" font-weight="800" text-anchor="middle"><circle cx="600" cy="360" r="112" fill="#101817" stroke="#42fcd1" stroke-width="5"/><text x="600" y="352" fill="#f5f1e8" font-size="90">TKO</text><text x="600" y="395" fill="#42fcd1" font-size="18" letter-spacing="5">ECOSYSTEM</text><g><circle cx="260" cy="170" r="78" fill="#fc5042"/><text x="260" y="184" fill="#fff" font-size="40">WWE</text></g><g><circle cx="600" cy="115" r="78" fill="#f5f1e8"/><text x="600" y="129" fill="#171917" font-size="40">UFC</text></g><g><circle cx="940" cy="170" r="78" fill="#fc9142"/><text x="940" y="184" fill="#171917" font-size="40">PBR</text></g><g><circle cx="285" cy="545" r="78" fill="#5f7d76"/><text x="285" y="559" fill="#fff" font-size="40">IMG</text></g><g><circle cx="915" cy="545" r="88" fill="#7d6c5f"/><text x="915" y="538" fill="#fff" font-size="25">ON</text><text x="915" y="570" fill="#fff" font-size="25">LOCATION</text></g></g><text x="54" y="62" fill="#42fcd1" font-family="Arial" font-size="18" font-weight="700" letter-spacing="4">EVERY PART FEEDS THE WHOLE</text></svg>