<svg xmlns="http://www.w3.org/2000/svg" viewBox="0 0 1600 930" role="img" aria-labelledby="t d"><title id="t">A diagram is not proof</title><desc id="d">A TKO system architecture diagram with a QA status panel.</desc><defs><pattern id="grid" width="50" height="50" patternUnits="userSpaceOnUse"><path d="M50 0H0V50" fill="none" stroke="#f5f1e8" stroke-opacity=".04"/></pattern></defs><rect width="1600" height="930" fill="#0b0e0d"/><rect width="1600" height="930" fill="url(#grid)"/><g font-family="Arial, sans-serif"><text x="70" y="70" fill="#fc5042" font-size="18" font-weight="800" letter-spacing="4">ARTICLE 02 / VALIDATION</text><text x="800" y="125" text-anchor="middle" fill="#f5f1e8" font-size="62" font-weight="900">A DIAGRAM IS NOT PROOF.</text><path d="M610 150h380" stroke="#fc5042" stroke-width="6"/><g fill="none" stroke="#5f7d76" stroke-width="3"><path d="M800 430 370 280M800 430 1230 280M800 430 380 590M800 430 1220 590M800 430V700"/><path d="M370 280 1220 590M1230 280 380 590" stroke-dasharray="8 12" opacity=".4"/></g><circle cx="800" cy="430" r="160" fill="#111817" stroke="#fc5042" stroke-width="5"/><circle cx="800" cy="430" r="125" fill="none" stroke="#f5f1e8" stroke-opacity=".2" stroke-dasharray="8 10"/><text x="800" y="425" text-anchor="middle" fill="#f5f1e8" font-size="110" font-weight="900">TKO</text><text x="800" y="475" text-anchor="middle" fill="#fc5042" font-size="20" font-weight="800" letter-spacing="5">CENTRAL OPERATING SYSTEM</text><g font-weight="800" text-anchor="middle"><g transform="translate(230 215)"><rect width="280" height="130" rx="10" fill="#151a18" stroke="#5f7d76"/><text x="140" y="78" fill="#f5f1e8" font-size="42">WWE</text></g><g transform="translate(1090 215)"><rect width="280" height="130" rx="10" fill="#151a18" stroke="#5f7d76"/><text x="140" y="78" fill="#fc5042" font-size="42">UFC</text></g><g transform="translate(240 525)"><rect width="280" height="130" rx="10" fill="#151a18" stroke="#5f7d76"/><text x="140" y="78" fill="#f5f1e8" font-size="42">IMG</text></g><g transform="translate(1080 525)"><rect width="280" height="130" rx="10" fill="#151a18" stroke="#5f7d76"/><text x="140" y="78" fill="#fc9142" font-size="42">PBR</text></g><g transform="translate(610 660)"><rect width="380" height="115" rx="10" fill="#151a18" stroke="#5f7d76"/><text x="190" y="70" fill="#42fcd1" font-size="34">ON LOCATION</text></g></g><g transform="translate(150 805)"><rect width="1300" height="90" rx="8" fill="#151a18" stroke="#5f7d76"/><path d="M433 0v90M866 0v90" stroke="#5f7d76"/><text x="216" y="36" text-anchor="middle" fill="#fc5042" font-size="17" font-weight="800">DESIGNED</text><text x="216" y="68" text-anchor="middle" fill="#f5f1e8" font-size="26" font-weight="900">YES</text><text x="650" y="36" text-anchor="middle" fill="#fc5042" font-size="17" font-weight="800">CONNECTED</text><text x="650" y="68" text-anchor="middle" fill="#f5f1e8" font-size="26" font-weight="900">APPARENTLY</text><text x="1080" y="36" text-anchor="middle" fill="#fc5042" font-size="17" font-weight="800">VALIDATED</text><text x="1080" y="68" text-anchor="middle" fill="#f5f1e8" font-size="26" font-weight="900">TESTING IN PROGRESS</text></g></g></svg>